<svg xmlns="http://www.w3.org/2000/svg" width="1200" height="720" viewBox="0 0 1200 720">
<rect width="1200" height="720" fill="#e9dfce"/><g><circle cx="917" cy="427" r="33" fill="none" stroke="#7d3a33" stroke-opacity="0.18" stroke-width="2"/><circle cx="574" cy="413" r="33" fill="none" stroke="#7d3a33" stroke-opacity="0.28" stroke-width="2"/><circle cx="1051" cy="360" r="33" fill="none" stroke="#7d3a33" stroke-opacity="0.38" stroke-width="2"/><circle cx="981" cy="499" r="23" fill="none" stroke="#7d3a33" stroke-opacity="0.18" stroke-width="2"/><circle cx="712" cy="468" r="30" fill="none" stroke="#7d3a33" stroke-opacity="0.28" stroke-width="2"/><circle cx="1069" cy="528" r="32" fill="none" stroke="#7d3a33" stroke-opacity="0.38" stroke-width="2"/><circle cx="1113" cy="241" r="42" fill="none" stroke="#7d3a33" stroke-opacity="0.18" stroke-width="2"/><circle cx="1119" cy="215" r="26" fill="none" stroke="#7d3a33" stroke-opacity="0.28" stroke-width="2"/><circle cx="917" cy="284" r="12" fill="none" stroke="#7d3a33" stroke-opacity="0.38" stroke-width="2"/><path d="M40 337 C110 257,200 287,280 197" fill="none" stroke="#355f7b" stroke-opacity=".38" stroke-width="2"/><path d="M210 257 C280 177,370 401,450 311" fill="none" stroke="#355f7b" stroke-opacity=".38" stroke-width="2"/><path d="M380 272 C450 192,540 482,620 392" fill="none" stroke="#355f7b" stroke-opacity=".38" stroke-width="2"/><path d="M550 232 C620 152,710 203,790 113" fill="none" stroke="#355f7b" stroke-opacity=".38" stroke-width="2"/><path d="M720 374 C790 294,880 299,960 209" fill="none" stroke="#355f7b" stroke-opacity=".38" stroke-width="2"/><path d="M890 218 C960 138,1050 172,1130 82" fill="none" stroke="#355f7b" stroke-opacity=".38" stroke-width="2"/><path d="M1060 249 C1130 169,1220 170,1300 80" fill="none" stroke="#355f7b" stroke-opacity=".38" stroke-width="2"/></g>
<rect x="54" y="52" width="260" height="36" fill="#7d3a33" opacity=".9"/><text x="72" y="76" font-family="monospace" font-size="17" font-weight="700" fill="#e9dfce">ÖĞRENME YÖNTEMI</text>
<text x="58" y="590" font-family="Georgia,serif" font-size="68" font-weight="700" fill="#7d3a33">YZ ile Dinamik Müfredat</text>
<text x="60" y="642" font-family="monospace" font-size="18" fill="#355f7b">NOTEBOOKLM · YZ · ARAŞTIRMA</text>
</svg>