<svg xmlns="http://www.w3.org/2000/svg" width="1200" height="720" viewBox="0 0 1200 720">
<rect width="1200" height="720" fill="#e8dcc7"/><g><circle cx="793" cy="143" r="13" fill="none" stroke="#a24b2a" stroke-opacity="0.18" stroke-width="2"/><circle cx="169" cy="212" r="28" fill="none" stroke="#a24b2a" stroke-opacity="0.28" stroke-width="2"/><circle cx="871" cy="74" r="22" fill="none" stroke="#a24b2a" stroke-opacity="0.38" stroke-width="2"/><circle cx="568" cy="577" r="21" fill="none" stroke="#a24b2a" stroke-opacity="0.18" stroke-width="2"/><circle cx="141" cy="488" r="39" fill="none" stroke="#a24b2a" stroke-opacity="0.28" stroke-width="2"/><circle cx="347" cy="106" r="44" fill="none" stroke="#a24b2a" stroke-opacity="0.38" stroke-width="2"/><circle cx="633" cy="141" r="17" fill="none" stroke="#a24b2a" stroke-opacity="0.18" stroke-width="2"/><circle cx="929" cy="352" r="29" fill="none" stroke="#a24b2a" stroke-opacity="0.28" stroke-width="2"/><circle cx="793" cy="603" r="41" fill="none" stroke="#a24b2a" stroke-opacity="0.38" stroke-width="2"/><path d="M40 173 C110 93,200 343,280 253" fill="none" stroke="#2e6860" stroke-opacity=".38" stroke-width="2"/><path d="M210 164 C280 84,370 381,450 291" fill="none" stroke="#2e6860" stroke-opacity=".38" stroke-width="2"/><path d="M380 287 C450 207,540 511,620 421" fill="none" stroke="#2e6860" stroke-opacity=".38" stroke-width="2"/><path d="M550 151 C620 71,710 563,790 473" fill="none" stroke="#2e6860" stroke-opacity=".38" stroke-width="2"/><path d="M720 183 C790 103,880 406,960 316" fill="none" stroke="#2e6860" stroke-opacity=".38" stroke-width="2"/><path d="M890 268 C960 188,1050 173,1130 83" fill="none" stroke="#2e6860" stroke-opacity=".38" stroke-width="2"/><path d="M1060 356 C1130 276,1220 170,1300 80" fill="none" stroke="#2e6860" stroke-opacity=".38" stroke-width="2"/></g>
<rect x="54" y="52" width="260" height="36" fill="#a24b2a" opacity=".9"/><text x="72" y="76" font-family="monospace" font-size="17" font-weight="700" fill="#e8dcc7">GÖRSEL DENEY</text>
<text x="58" y="590" font-family="Georgia,serif" font-size="68" font-weight="700" fill="#a24b2a">Saksoğan</text>
<text x="60" y="642" font-family="monospace" font-size="18" fill="#2e6860">INVOKEAI · CONTROLNET · FLUX</text>
</svg>