<svg xmlns="http://www.w3.org/2000/svg" viewBox="0 0 1600 980" role="img" aria-labelledby="t d">
<title id="t">WebBordro sistem görseli</title><desc id="d">Masaüstü, web ve Python sürümlerini temsil eden üç katmanlı arayüz kompozisyonu.</desc>
<defs>
  <linearGradient id="bg" x1="0" y1="0" x2="1" y2="1"><stop stop-color="#ded4c2"/><stop offset="1" stop-color="#b8aa92"/></linearGradient>
  <linearGradient id="screen" x1="0" y1="0" x2="0" y2="1"><stop stop-color="#20242b"/><stop offset="1" stop-color="#0e1116"/></linearGradient>
  <filter id="shadow" x="-20%" y="-20%" width="140%" height="160%"><feDropShadow dx="0" dy="28" stdDeviation="24" flood-opacity=".26"/></filter>
</defs>
<rect width="1600" height="980" rx="42" fill="url(#bg)"/>
<path d="M0 760C280 660 470 920 770 760s515-40 830-155v375H0Z" fill="#a44d2b" opacity=".15"/>
<g filter="url(#shadow)">
  <g transform="translate(120 154) rotate(-4 420 270)">
    <rect width="820" height="540" rx="24" fill="#14181e"/>
    <rect x="18" y="18" width="784" height="504" rx="16" fill="url(#screen)" stroke="#3a404b"/>
    <circle cx="52" cy="48" r="9" fill="#cc6542"/><circle cx="80" cy="48" r="9" fill="#d5a94a"/><circle cx="108" cy="48" r="9" fill="#70a58b"/>
    <text x="146" y="56" fill="#f0eadf" font-family="Arial, sans-serif" font-size="22" font-weight="700">DeltaBordro Desktop</text>
    <rect x="50" y="92" width="220" height="372" rx="14" fill="#202631"/>
    <rect x="292" y="92" width="470" height="80" rx="14" fill="#1a2029" stroke="#3b4656"/>
    <rect x="292" y="192" width="220" height="120" rx="14" fill="#252c37"/><rect x="530" y="192" width="232" height="120" rx="14" fill="#252c37"/>
    <rect x="292" y="332" width="470" height="132" rx="14" fill="#191f27"/>
    <g fill="#8994a3"><rect x="74" y="126" width="145" height="12" rx="6"/><rect x="74" y="164" width="105" height="9" rx="5"/><rect x="74" y="208" width="158" height="9" rx="5"/><rect x="74" y="252" width="134" height="9" rx="5"/></g>
    <rect x="74" y="392" width="156" height="42" rx="10" fill="#a44d2b"/>
    <text x="322" y="142" fill="#f0eadf" font-family="Arial" font-size="29" font-weight="700">₺ 42.350,00</text>
    <path d="M330 423C390 380 430 442 487 388s95 40 150-15 70 8 92-28" fill="none" stroke="#d3a24c" stroke-width="8" stroke-linecap="round"/>
  </g>
  <g transform="translate(770 260) rotate(3 330 220)">
    <rect width="660" height="440" rx="24" fill="#f4efe5"/>
    <rect x="16" y="16" width="628" height="408" rx="16" fill="#fbf8f1" stroke="#c8bda9"/>
    <rect x="16" y="16" width="628" height="54" rx="16" fill="#211d19"/>
    <circle cx="46" cy="43" r="7" fill="#b85d3a"/><circle cx="69" cy="43" r="7" fill="#d4aa4c"/><circle cx="92" cy="43" r="7" fill="#6d9f85"/>
    <text x="122" y="50" fill="#efe8dc" font-family="Arial" font-size="18" font-weight="700">webbordro.com</text>
    <rect x="48" y="103" width="566" height="72" rx="14" fill="#eee6d9"/>
    <rect x="48" y="199" width="172" height="152" rx="14" fill="#201d19"/>
    <rect x="237" y="199" width="172" height="152" rx="14" fill="#d8cdbd"/>
    <rect x="426" y="199" width="188" height="152" rx="14" fill="#b05231"/>
    <g fill="#5b5146"><rect x="70" y="124" width="230" height="12" rx="6"/><rect x="70" y="145" width="154" height="9" rx="5"/></g>
    <text x="74" y="247" fill="#f3ede3" font-family="Arial" font-size="17">NET ÜCRET</text><text x="74" y="292" fill="#fff" font-family="Arial" font-size="32" font-weight="700">42.350</text>
    <text x="265" y="247" fill="#493f34" font-family="Arial" font-size="17">BRÜT</text><text x="265" y="292" fill="#211d19" font-family="Arial" font-size="32" font-weight="700">58.940</text>
    <text x="452" y="247" fill="#f6e9df" font-family="Arial" font-size="17">MALİYET</text><text x="452" y="292" fill="#fff" font-family="Arial" font-size="32" font-weight="700">72.180</text>
  </g>
  <g transform="translate(346 650) rotate(1 420 120)">
    <rect width="850" height="235" rx="22" fill="#11151a"/>
    <circle cx="42" cy="38" r="8" fill="#cc6542"/><circle cx="68" cy="38" r="8" fill="#d5a94a"/><circle cx="94" cy="38" r="8" fill="#70a58b"/>
    <text x="42" y="92" fill="#7fb78f" font-family="monospace" font-size="25">$ python deltabordro.py --year 2026</text>
    <text x="42" y="137" fill="#d7d0c5" font-family="monospace" font-size="21">mevzuat yüklendi · 12 ay hesaplandı</text>
    <text x="42" y="181" fill="#d6a742" font-family="monospace" font-size="21">✓ sonuçlar doğrulandı · rapor hazır</text>
  </g>
</g>
</svg>
