<svg xmlns="http://www.w3.org/2000/svg" width="1200" height="720" viewBox="0 0 1200 720">
<rect width="1200" height="720" fill="#e8dcc7"/><g><circle cx="689" cy="439" r="17" fill="none" stroke="#a24b2a" stroke-opacity="0.18" stroke-width="2"/><circle cx="1066" cy="536" r="10" fill="none" stroke="#a24b2a" stroke-opacity="0.28" stroke-width="2"/><circle cx="593" cy="417" r="37" fill="none" stroke="#a24b2a" stroke-opacity="0.38" stroke-width="2"/><circle cx="534" cy="308" r="15" fill="none" stroke="#a24b2a" stroke-opacity="0.18" stroke-width="2"/><circle cx="786" cy="217" r="38" fill="none" stroke="#a24b2a" stroke-opacity="0.28" stroke-width="2"/><circle cx="558" cy="254" r="25" fill="none" stroke="#a24b2a" stroke-opacity="0.38" stroke-width="2"/><circle cx="269" cy="583" r="40" fill="none" stroke="#a24b2a" stroke-opacity="0.18" stroke-width="2"/><circle cx="233" cy="523" r="44" fill="none" stroke="#a24b2a" stroke-opacity="0.28" stroke-width="2"/><circle cx="689" cy="189" r="17" fill="none" stroke="#a24b2a" stroke-opacity="0.38" stroke-width="2"/><path d="M40 209 C110 129,200 439,280 349" fill="none" stroke="#2e6860" stroke-opacity=".38" stroke-width="2"/><path d="M210 373 C280 293,370 483,450 393" fill="none" stroke="#2e6860" stroke-opacity=".38" stroke-width="2"/><path d="M380 218 C450 138,540 476,620 386" fill="none" stroke="#2e6860" stroke-opacity=".38" stroke-width="2"/><path d="M550 146 C620 66,710 519,790 429" fill="none" stroke="#2e6860" stroke-opacity=".38" stroke-width="2"/><path d="M720 369 C790 289,880 319,960 229" fill="none" stroke="#2e6860" stroke-opacity=".38" stroke-width="2"/><path d="M890 197 C960 117,1050 172,1130 82" fill="none" stroke="#2e6860" stroke-opacity=".38" stroke-width="2"/><path d="M1060 269 C1130 189,1220 170,1300 80" fill="none" stroke="#2e6860" stroke-opacity=".38" stroke-width="2"/></g>
<rect x="54" y="52" width="260" height="36" fill="#a24b2a" opacity=".9"/><text x="72" y="76" font-family="monospace" font-size="17" font-weight="700" fill="#e8dcc7">GÖRSEL DIL</text>
<text x="58" y="590" font-family="Georgia,serif" font-size="68" font-weight="700" fill="#a24b2a">Işık Çatlaklı Siluet</text>
<text x="60" y="642" font-family="monospace" font-size="18" fill="#2e6860">KRITA · INVOKEAI · ÇIZIM</text>
</svg>