<svg xmlns="http://www.w3.org/2000/svg" width="1200" height="720" viewBox="0 0 1200 720">
<rect width="1200" height="720" fill="#1d1a16"/><g><circle cx="223" cy="133" r="39" fill="none" stroke="#cf9c48" stroke-opacity="0.18" stroke-width="2"/><circle cx="617" cy="544" r="15" fill="none" stroke="#cf9c48" stroke-opacity="0.28" stroke-width="2"/><circle cx="797" cy="609" r="28" fill="none" stroke="#cf9c48" stroke-opacity="0.38" stroke-width="2"/><circle cx="1079" cy="349" r="13" fill="none" stroke="#cf9c48" stroke-opacity="0.18" stroke-width="2"/><circle cx="1114" cy="411" r="9" fill="none" stroke="#cf9c48" stroke-opacity="0.28" stroke-width="2"/><circle cx="599" cy="381" r="17" fill="none" stroke="#cf9c48" stroke-opacity="0.38" stroke-width="2"/><circle cx="404" cy="307" r="38" fill="none" stroke="#cf9c48" stroke-opacity="0.18" stroke-width="2"/><circle cx="250" cy="619" r="34" fill="none" stroke="#cf9c48" stroke-opacity="0.28" stroke-width="2"/><circle cx="223" cy="489" r="33" fill="none" stroke="#cf9c48" stroke-opacity="0.38" stroke-width="2"/><path d="M40 223 C110 143,200 593,280 503" fill="none" stroke="#88b285" stroke-opacity=".38" stroke-width="2"/><path d="M210 208 C280 128,370 507,450 417" fill="none" stroke="#88b285" stroke-opacity=".38" stroke-width="2"/><path d="M380 249 C450 169,540 584,620 494" fill="none" stroke="#88b285" stroke-opacity=".38" stroke-width="2"/><path d="M550 354 C620 274,710 614,790 524" fill="none" stroke="#88b285" stroke-opacity=".38" stroke-width="2"/><path d="M720 299 C790 219,880 191,960 101" fill="none" stroke="#88b285" stroke-opacity=".38" stroke-width="2"/><path d="M890 131 C960 51,1050 170,1130 80" fill="none" stroke="#88b285" stroke-opacity=".38" stroke-width="2"/><path d="M1060 141 C1130 61,1220 170,1300 80" fill="none" stroke="#88b285" stroke-opacity=".38" stroke-width="2"/></g>
<rect x="54" y="52" width="260" height="36" fill="#cf9c48" opacity=".9"/><text x="72" y="76" font-family="monospace" font-size="17" font-weight="700" fill="#1d1a16">DERS / PROJE</text>
<text x="58" y="590" font-family="Georgia,serif" font-size="68" font-weight="700" fill="#cf9c48">Üretim Takip Sistemi</text>
<text x="60" y="642" font-family="monospace" font-size="18" fill="#88b285">PHP · MYSQL · JAVASCRIPT</text>
</svg>