<svg xmlns="http://www.w3.org/2000/svg" width="1200" height="720" viewBox="0 0 1200 720">
<rect width="1200" height="720" fill="#151b18"/><g><circle cx="760" cy="590" r="44" fill="none" stroke="#72ad86" stroke-opacity="0.18" stroke-width="2"/><circle cx="555" cy="348" r="36" fill="none" stroke="#72ad86" stroke-opacity="0.28" stroke-width="2"/><circle cx="139" cy="428" r="43" fill="none" stroke="#72ad86" stroke-opacity="0.38" stroke-width="2"/><circle cx="477" cy="238" r="45" fill="none" stroke="#72ad86" stroke-opacity="0.18" stroke-width="2"/><circle cx="389" cy="530" r="26" fill="none" stroke="#72ad86" stroke-opacity="0.28" stroke-width="2"/><circle cx="248" cy="610" r="12" fill="none" stroke="#72ad86" stroke-opacity="0.38" stroke-width="2"/><circle cx="881" cy="209" r="37" fill="none" stroke="#72ad86" stroke-opacity="0.18" stroke-width="2"/><circle cx="310" cy="529" r="15" fill="none" stroke="#72ad86" stroke-opacity="0.28" stroke-width="2"/><circle cx="760" cy="154" r="38" fill="none" stroke="#72ad86" stroke-opacity="0.38" stroke-width="2"/><path d="M40 200 C110 120,200 370,280 280" fill="none" stroke="#d3a54b" stroke-opacity=".38" stroke-width="2"/><path d="M210 207 C280 127,370 489,450 399" fill="none" stroke="#d3a54b" stroke-opacity=".38" stroke-width="2"/><path d="M380 434 C450 354,540 239,620 149" fill="none" stroke="#d3a54b" stroke-opacity=".38" stroke-width="2"/><path d="M550 139 C620 59,710 171,790 81" fill="none" stroke="#d3a54b" stroke-opacity=".38" stroke-width="2"/><path d="M720 224 C790 144,880 198,960 108" fill="none" stroke="#d3a54b" stroke-opacity=".38" stroke-width="2"/><path d="M890 250 C960 170,1050 170,1130 80" fill="none" stroke="#d3a54b" stroke-opacity=".38" stroke-width="2"/><path d="M1060 148 C1130 68,1220 170,1300 80" fill="none" stroke="#d3a54b" stroke-opacity=".38" stroke-width="2"/></g>
<rect x="54" y="52" width="260" height="36" fill="#72ad86" opacity=".9"/><text x="72" y="76" font-family="monospace" font-size="17" font-weight="700" fill="#151b18">İŞ AKIŞI</text>
<text x="58" y="590" font-family="Georgia,serif" font-size="68" font-weight="700" fill="#72ad86">ControlNet Ağırlık Bütçesi</text>
<text x="60" y="642" font-family="monospace" font-size="18" fill="#d3a54b">GEÇİCİ PROJE GÖRSELİ · GERÇEK MEDYA İLE DEĞİŞTİRİLECEK</text>
</svg>