<svg xmlns="http://www.w3.org/2000/svg" width="1200" height="720" viewBox="0 0 1200 720">
<rect width="1200" height="720" fill="#16202a"/><g><circle cx="136" cy="446" r="44" fill="none" stroke="#77a6c7" stroke-opacity="0.18" stroke-width="2"/><circle cx="477" cy="589" r="36" fill="none" stroke="#77a6c7" stroke-opacity="0.28" stroke-width="2"/><circle cx="779" cy="243" r="24" fill="none" stroke="#77a6c7" stroke-opacity="0.38" stroke-width="2"/><circle cx="427" cy="460" r="21" fill="none" stroke="#77a6c7" stroke-opacity="0.18" stroke-width="2"/><circle cx="643" cy="414" r="20" fill="none" stroke="#77a6c7" stroke-opacity="0.28" stroke-width="2"/><circle cx="150" cy="538" r="39" fill="none" stroke="#77a6c7" stroke-opacity="0.38" stroke-width="2"/><circle cx="738" cy="609" r="25" fill="none" stroke="#77a6c7" stroke-opacity="0.18" stroke-width="2"/><circle cx="812" cy="156" r="40" fill="none" stroke="#77a6c7" stroke-opacity="0.28" stroke-width="2"/><circle cx="136" cy="545" r="35" fill="none" stroke="#77a6c7" stroke-opacity="0.38" stroke-width="2"/><path d="M40 306 C110 226,200 546,280 456" fill="none" stroke="#d9b95f" stroke-opacity=".38" stroke-width="2"/><path d="M210 358 C280 278,370 549,450 459" fill="none" stroke="#d9b95f" stroke-opacity=".38" stroke-width="2"/><path d="M380 134 C450 54,540 233,620 143" fill="none" stroke="#d9b95f" stroke-opacity=".38" stroke-width="2"/><path d="M550 203 C620 123,710 508,790 418" fill="none" stroke="#d9b95f" stroke-opacity=".38" stroke-width="2"/><path d="M720 125 C790 45,880 261,960 171" fill="none" stroke="#d9b95f" stroke-opacity=".38" stroke-width="2"/><path d="M890 264 C960 184,1050 171,1130 81" fill="none" stroke="#d9b95f" stroke-opacity=".38" stroke-width="2"/><path d="M1060 211 C1130 131,1220 170,1300 80" fill="none" stroke="#d9b95f" stroke-opacity=".38" stroke-width="2"/></g>
<rect x="54" y="52" width="260" height="36" fill="#77a6c7" opacity=".9"/><text x="72" y="76" font-family="monospace" font-size="17" font-weight="700" fill="#16202a">DIL / SES</text>
<text x="58" y="590" font-family="Georgia,serif" font-size="68" font-weight="700" fill="#77a6c7">Cyrillic Flow ve TTS Sözlük</text>
<text x="60" y="642" font-family="monospace" font-size="18" fill="#d9b95f">GEÇİCİ PROJE GÖRSELİ · GERÇEK MEDYA İLE DEĞİŞTİRİLECEK</text>
</svg>