<svg xmlns="http://www.w3.org/2000/svg" width="1200" height="720" viewBox="0 0 1200 720">
<rect width="1200" height="720" fill="#e8dcc7"/><g><circle cx="750" cy="340" r="42" fill="none" stroke="#a24b2a" stroke-opacity="0.18" stroke-width="2"/><circle cx="423" cy="95" r="35" fill="none" stroke="#a24b2a" stroke-opacity="0.28" stroke-width="2"/><circle cx="772" cy="368" r="33" fill="none" stroke="#a24b2a" stroke-opacity="0.38" stroke-width="2"/><circle cx="1076" cy="184" r="42" fill="none" stroke="#a24b2a" stroke-opacity="0.18" stroke-width="2"/><circle cx="594" cy="598" r="45" fill="none" stroke="#a24b2a" stroke-opacity="0.28" stroke-width="2"/><circle cx="274" cy="485" r="36" fill="none" stroke="#a24b2a" stroke-opacity="0.38" stroke-width="2"/><circle cx="754" cy="362" r="24" fill="none" stroke="#a24b2a" stroke-opacity="0.18" stroke-width="2"/><circle cx="424" cy="219" r="40" fill="none" stroke="#a24b2a" stroke-opacity="0.28" stroke-width="2"/><circle cx="750" cy="127" r="35" fill="none" stroke="#a24b2a" stroke-opacity="0.38" stroke-width="2"/><path d="M40 360 C110 280,200 300,280 210" fill="none" stroke="#2e6860" stroke-opacity=".38" stroke-width="2"/><path d="M210 361 C280 281,370 322,450 232" fill="none" stroke="#2e6860" stroke-opacity=".38" stroke-width="2"/><path d="M380 403 C450 323,540 524,620 434" fill="none" stroke="#2e6860" stroke-opacity=".38" stroke-width="2"/><path d="M550 364 C620 284,710 204,790 114" fill="none" stroke="#2e6860" stroke-opacity=".38" stroke-width="2"/><path d="M720 197 C790 117,880 343,960 253" fill="none" stroke="#2e6860" stroke-opacity=".38" stroke-width="2"/><path d="M890 248 C960 168,1050 172,1130 82" fill="none" stroke="#2e6860" stroke-opacity=".38" stroke-width="2"/><path d="M1060 293 C1130 213,1220 170,1300 80" fill="none" stroke="#2e6860" stroke-opacity=".38" stroke-width="2"/></g>
<rect x="54" y="52" width="260" height="36" fill="#a24b2a" opacity=".9"/><text x="72" y="76" font-family="monospace" font-size="17" font-weight="700" fill="#e8dcc7">3D SÜREÇ</text>
<text x="58" y="590" font-family="Georgia,serif" font-size="68" font-weight="700" fill="#a24b2a">Neyzen: Görselden 3D Modele</text>
<text x="60" y="642" font-family="monospace" font-size="18" fill="#2e6860">GEÇİCİ PROJE GÖRSELİ · GERÇEK MEDYA İLE DEĞİŞTİRİLECEK</text>
</svg>