<svg xmlns="http://www.w3.org/2000/svg" width="1200" height="720" viewBox="0 0 1200 720">
<rect width="1200" height="720" fill="#201720"/><g><circle cx="338" cy="248" r="32" fill="none" stroke="#b56c93" stroke-opacity="0.18" stroke-width="2"/><circle cx="632" cy="268" r="42" fill="none" stroke="#b56c93" stroke-opacity="0.28" stroke-width="2"/><circle cx="539" cy="93" r="26" fill="none" stroke="#b56c93" stroke-opacity="0.38" stroke-width="2"/><circle cx="527" cy="158" r="41" fill="none" stroke="#b56c93" stroke-opacity="0.18" stroke-width="2"/><circle cx="785" cy="545" r="44" fill="none" stroke="#b56c93" stroke-opacity="0.28" stroke-width="2"/><circle cx="168" cy="439" r="45" fill="none" stroke="#b56c93" stroke-opacity="0.38" stroke-width="2"/><circle cx="221" cy="449" r="45" fill="none" stroke="#b56c93" stroke-opacity="0.18" stroke-width="2"/><circle cx="877" cy="361" r="36" fill="none" stroke="#b56c93" stroke-opacity="0.28" stroke-width="2"/><circle cx="338" cy="394" r="34" fill="none" stroke="#b56c93" stroke-opacity="0.38" stroke-width="2"/><path d="M40 308 C110 228,200 308,280 218" fill="none" stroke="#d6a84a" stroke-opacity=".38" stroke-width="2"/><path d="M210 276 C280 196,370 589,450 499" fill="none" stroke="#d6a84a" stroke-opacity=".38" stroke-width="2"/><path d="M380 294 C450 214,540 535,620 445" fill="none" stroke="#d6a84a" stroke-opacity=".38" stroke-width="2"/><path d="M550 295 C620 215,710 571,790 481" fill="none" stroke="#d6a84a" stroke-opacity=".38" stroke-width="2"/><path d="M720 234 C790 154,880 269,960 179" fill="none" stroke="#d6a84a" stroke-opacity=".38" stroke-width="2"/><path d="M890 395 C960 315,1050 171,1130 81" fill="none" stroke="#d6a84a" stroke-opacity=".38" stroke-width="2"/><path d="M1060 219 C1130 139,1220 170,1300 80" fill="none" stroke="#d6a84a" stroke-opacity=".38" stroke-width="2"/></g>
<rect x="54" y="52" width="260" height="36" fill="#b56c93" opacity=".9"/><text x="72" y="76" font-family="monospace" font-size="17" font-weight="700" fill="#201720">MANTIK KONTROLÜ</text>
<text x="58" y="590" font-family="Georgia,serif" font-size="68" font-weight="700" fill="#b56c93">YZ Videosunda Patlama Fiziği</text>
<text x="60" y="642" font-family="monospace" font-size="18" fill="#d6a84a">GEÇİCİ PROJE GÖRSELİ · GERÇEK MEDYA İLE DEĞİŞTİRİLECEK</text>
</svg>