<svg xmlns="http://www.w3.org/2000/svg" width="1200" height="720" viewBox="0 0 1200 720">
<rect width="1200" height="720" fill="#151b18"/><g><circle cx="616" cy="286" r="44" fill="none" stroke="#72ad86" stroke-opacity="0.18" stroke-width="2"/><circle cx="797" cy="409" r="36" fill="none" stroke="#72ad86" stroke-opacity="0.28" stroke-width="2"/><circle cx="169" cy="360" r="24" fill="none" stroke="#72ad86" stroke-opacity="0.38" stroke-width="2"/><circle cx="741" cy="376" r="21" fill="none" stroke="#72ad86" stroke-opacity="0.18" stroke-width="2"/><circle cx="292" cy="184" r="30" fill="none" stroke="#72ad86" stroke-opacity="0.28" stroke-width="2"/><circle cx="626" cy="458" r="32" fill="none" stroke="#72ad86" stroke-opacity="0.38" stroke-width="2"/><circle cx="538" cy="239" r="42" fill="none" stroke="#72ad86" stroke-opacity="0.18" stroke-width="2"/><circle cx="137" cy="495" r="45" fill="none" stroke="#72ad86" stroke-opacity="0.28" stroke-width="2"/><circle cx="616" cy="223" r="17" fill="none" stroke="#72ad86" stroke-opacity="0.38" stroke-width="2"/><path d="M40 256 C110 176,200 226,280 136" fill="none" stroke="#d3a54b" stroke-opacity=".38" stroke-width="2"/><path d="M210 128 C280 48,370 199,450 109" fill="none" stroke="#d3a54b" stroke-opacity=".38" stroke-width="2"/><path d="M380 182 C450 102,540 522,620 432" fill="none" stroke="#d3a54b" stroke-opacity=".38" stroke-width="2"/><path d="M550 412 C620 332,710 628,790 538" fill="none" stroke="#d3a54b" stroke-opacity=".38" stroke-width="2"/><path d="M720 303 C790 223,880 177,960 87" fill="none" stroke="#d3a54b" stroke-opacity=".38" stroke-width="2"/><path d="M890 234 C960 154,1050 170,1130 80" fill="none" stroke="#d3a54b" stroke-opacity=".38" stroke-width="2"/><path d="M1060 127 C1130 47,1220 170,1300 80" fill="none" stroke="#d3a54b" stroke-opacity=".38" stroke-width="2"/></g>
<rect x="54" y="52" width="260" height="36" fill="#72ad86" opacity=".9"/><text x="72" y="76" font-family="monospace" font-size="17" font-weight="700" fill="#151b18">YÖNTEM</text>
<text x="58" y="590" font-family="Georgia,serif" font-size="68" font-weight="700" fill="#72ad86">Tablet ve Krita Çalışma Düzeni</text>
<text x="60" y="642" font-family="monospace" font-size="18" fill="#d3a54b">GEÇİCİ PROJE GÖRSELİ · GERÇEK MEDYA İLE DEĞİŞTİRİLECEK</text>
</svg>