<svg xmlns="http://www.w3.org/2000/svg" width="1200" height="720" viewBox="0 0 1200 720">
<rect width="1200" height="720" fill="#1d1a16"/><g><circle cx="432" cy="102" r="28" fill="none" stroke="#cf9c48" stroke-opacity="0.18" stroke-width="2"/><circle cx="644" cy="211" r="32" fill="none" stroke="#cf9c48" stroke-opacity="0.28" stroke-width="2"/><circle cx="150" cy="249" r="14" fill="none" stroke="#cf9c48" stroke-opacity="0.38" stroke-width="2"/><circle cx="998" cy="145" r="28" fill="none" stroke="#cf9c48" stroke-opacity="0.18" stroke-width="2"/><circle cx="844" cy="194" r="41" fill="none" stroke="#cf9c48" stroke-opacity="0.28" stroke-width="2"/><circle cx="955" cy="86" r="35" fill="none" stroke="#cf9c48" stroke-opacity="0.38" stroke-width="2"/><circle cx="579" cy="140" r="14" fill="none" stroke="#cf9c48" stroke-opacity="0.18" stroke-width="2"/><circle cx="142" cy="159" r="19" fill="none" stroke="#cf9c48" stroke-opacity="0.28" stroke-width="2"/><circle cx="432" cy="387" r="29" fill="none" stroke="#cf9c48" stroke-opacity="0.38" stroke-width="2"/><path d="M40 322 C110 242,200 242,280 152" fill="none" stroke="#88b285" stroke-opacity=".38" stroke-width="2"/><path d="M210 442 C280 362,370 300,450 210" fill="none" stroke="#88b285" stroke-opacity=".38" stroke-width="2"/><path d="M380 387 C450 307,540 394,620 304" fill="none" stroke="#88b285" stroke-opacity=".38" stroke-width="2"/><path d="M550 404 C620 324,710 209,790 119" fill="none" stroke="#88b285" stroke-opacity=".38" stroke-width="2"/><path d="M720 137 C790 57,880 177,960 87" fill="none" stroke="#88b285" stroke-opacity=".38" stroke-width="2"/><path d="M890 244 C960 164,1050 170,1130 80" fill="none" stroke="#88b285" stroke-opacity=".38" stroke-width="2"/><path d="M1060 127 C1130 47,1220 170,1300 80" fill="none" stroke="#88b285" stroke-opacity=".38" stroke-width="2"/></g>
<rect x="54" y="52" width="260" height="36" fill="#cf9c48" opacity=".9"/><text x="72" y="76" font-family="monospace" font-size="17" font-weight="700" fill="#1d1a16">SISTEM</text>
<text x="58" y="590" font-family="Georgia,serif" font-size="68" font-weight="700" fill="#cf9c48">WebBordro / DeltaBordro</text>
<text x="60" y="642" font-family="monospace" font-size="18" fill="#88b285">GEÇİCİ PROJE GÖRSELİ · GERÇEK MEDYA İLE DEĞİŞTİRİLECEK</text>
</svg>