<svg xmlns="http://www.w3.org/2000/svg" width="1200" height="720" viewBox="0 0 1200 720">
<rect width="1200" height="720" fill="#e9dfce"/><g><circle cx="776" cy="206" r="24" fill="none" stroke="#7d3a33" stroke-opacity="0.18" stroke-width="2"/><circle cx="947" cy="126" r="12" fill="none" stroke="#7d3a33" stroke-opacity="0.28" stroke-width="2"/><circle cx="708" cy="474" r="37" fill="none" stroke="#7d3a33" stroke-opacity="0.38" stroke-width="2"/><circle cx="808" cy="222" r="34" fill="none" stroke="#7d3a33" stroke-opacity="0.18" stroke-width="2"/><circle cx="821" cy="617" r="43" fill="none" stroke="#7d3a33" stroke-opacity="0.28" stroke-width="2"/><circle cx="952" cy="418" r="26" fill="none" stroke="#7d3a33" stroke-opacity="0.38" stroke-width="2"/><circle cx="189" cy="378" r="41" fill="none" stroke="#7d3a33" stroke-opacity="0.18" stroke-width="2"/><circle cx="353" cy="272" r="35" fill="none" stroke="#7d3a33" stroke-opacity="0.28" stroke-width="2"/><circle cx="776" cy="426" r="24" fill="none" stroke="#7d3a33" stroke-opacity="0.38" stroke-width="2"/><path d="M40 266 C110 186,200 466,280 376" fill="none" stroke="#355f7b" stroke-opacity=".38" stroke-width="2"/><path d="M210 273 C280 193,370 318,450 228" fill="none" stroke="#355f7b" stroke-opacity=".38" stroke-width="2"/><path d="M380 377 C450 297,540 431,620 341" fill="none" stroke="#355f7b" stroke-opacity=".38" stroke-width="2"/><path d="M550 301 C620 221,710 519,790 429" fill="none" stroke="#355f7b" stroke-opacity=".38" stroke-width="2"/><path d="M720 296 C790 216,880 204,960 114" fill="none" stroke="#355f7b" stroke-opacity=".38" stroke-width="2"/><path d="M890 337 C960 257,1050 170,1130 80" fill="none" stroke="#355f7b" stroke-opacity=".38" stroke-width="2"/><path d="M1060 154 C1130 74,1220 170,1300 80" fill="none" stroke="#355f7b" stroke-opacity=".38" stroke-width="2"/></g>
<rect x="54" y="52" width="260" height="36" fill="#7d3a33" opacity=".9"/><text x="72" y="76" font-family="monospace" font-size="17" font-weight="700" fill="#e9dfce">PWA</text>
<text x="58" y="590" font-family="Georgia,serif" font-size="68" font-weight="700" fill="#7d3a33">AÖF Sınav Hazırlık</text>
<text x="60" y="642" font-family="monospace" font-size="18" fill="#355f7b">GEÇİCİ PROJE GÖRSELİ · GERÇEK MEDYA İLE DEĞİŞTİRİLECEK</text>
</svg>