<svg xmlns="http://www.w3.org/2000/svg" width="1200" height="720" viewBox="0 0 1200 720">
<rect width="1200" height="720" fill="#201720"/><g><circle cx="602" cy="352" r="42" fill="none" stroke="#b56c93" stroke-opacity="0.18" stroke-width="2"/><circle cx="535" cy="463" r="16" fill="none" stroke="#b56c93" stroke-opacity="0.28" stroke-width="2"/><circle cx="916" cy="362" r="19" fill="none" stroke="#b56c93" stroke-opacity="0.38" stroke-width="2"/><circle cx="184" cy="534" r="10" fill="none" stroke="#b56c93" stroke-opacity="0.18" stroke-width="2"/><circle cx="353" cy="347" r="37" fill="none" stroke="#b56c93" stroke-opacity="0.28" stroke-width="2"/><circle cx="1024" cy="211" r="34" fill="none" stroke="#b56c93" stroke-opacity="0.38" stroke-width="2"/><circle cx="1108" cy="266" r="43" fill="none" stroke="#b56c93" stroke-opacity="0.18" stroke-width="2"/><circle cx="858" cy="216" r="26" fill="none" stroke="#b56c93" stroke-opacity="0.28" stroke-width="2"/><circle cx="602" cy="582" r="22" fill="none" stroke="#b56c93" stroke-opacity="0.38" stroke-width="2"/><path d="M40 412 C110 332,200 412,280 322" fill="none" stroke="#d6a84a" stroke-opacity=".38" stroke-width="2"/><path d="M210 447 C280 367,370 446,450 356" fill="none" stroke="#d6a84a" stroke-opacity=".38" stroke-width="2"/><path d="M380 429 C450 349,540 203,620 113" fill="none" stroke="#d6a84a" stroke-opacity=".38" stroke-width="2"/><path d="M550 263 C620 183,710 458,790 368" fill="none" stroke="#d6a84a" stroke-opacity=".38" stroke-width="2"/><path d="M720 232 C790 152,880 397,960 307" fill="none" stroke="#d6a84a" stroke-opacity=".38" stroke-width="2"/><path d="M890 127 C960 47,1050 173,1130 83" fill="none" stroke="#d6a84a" stroke-opacity=".38" stroke-width="2"/><path d="M1060 347 C1130 267,1220 170,1300 80" fill="none" stroke="#d6a84a" stroke-opacity=".38" stroke-width="2"/></g>
<rect x="54" y="52" width="260" height="36" fill="#b56c93" opacity=".9"/><text x="72" y="76" font-family="monospace" font-size="17" font-weight="700" fill="#201720">HIKÂYE / VIDEO</text>
<text x="58" y="590" font-family="Georgia,serif" font-size="68" font-weight="700" fill="#b56c93">Kaplumbağa Kabuğu</text>
<text x="60" y="642" font-family="monospace" font-size="18" fill="#d6a84a">GEÇİCİ PROJE GÖRSELİ · GERÇEK MEDYA İLE DEĞİŞTİRİLECEK</text>
</svg>