<svg xmlns="http://www.w3.org/2000/svg" viewBox="0 0 1000 760" role="img" aria-labelledby="title desc">
<title id="title">WebBordro hikâyesi açılış görseli</title>
<desc id="desc">Bordro formu, kod ekranı ve şirket kullanımını temsil eden katmanlı kompozisyon.</desc>
<defs><linearGradient id="bg" x1="0" y1="0" x2="1" y2="1"><stop stop-color="#20242a"/><stop offset="1" stop-color="#0f1114"/></linearGradient><linearGradient id="hot" x1="0" y1="0" x2="1" y2="1"><stop stop-color="#a64d2e"/><stop offset="1" stop-color="#d7a04a"/></linearGradient></defs>
<rect width="1000" height="760" rx="28" fill="url(#bg)"/>
<g opacity=".15" stroke="#fff"><path d="M0 120h1000M0 240h1000M0 360h1000M0 480h1000M0 600h1000"/><path d="M160 0v760M320 0v760M480 0v760M640 0v760M800 0v760"/></g>
<g transform="translate(92 100)"><rect width="520" height="430" rx="18" fill="#eee5d4"/><rect x="28" y="28" width="464" height="52" rx="9" fill="#171a1e"/><circle cx="58" cy="54" r="7" fill="#d39f4d"/><rect x="84" y="47" width="140" height="14" rx="7" fill="#aaa296"/><g fill="#d8cbb7"><rect x="28" y="110" width="220" height="82" rx="10"/><rect x="272" y="110" width="220" height="82" rx="10"/><rect x="28" y="216" width="464" height="56" rx="10"/><rect x="28" y="296" width="464" height="98" rx="10"/></g><g fill="#ad5634"><rect x="50" y="133" width="98" height="12" rx="6"/><rect x="294" y="133" width="98" height="12" rx="6"/><rect x="50" y="238" width="168" height="12" rx="6"/></g><path d="M62 360h396" stroke="#948b7f" stroke-width="2" stroke-dasharray="8 8"/></g>
<g transform="translate(500 380)"><rect width="410" height="250" rx="18" fill="#111419" stroke="#414750"/><g font-family="monospace" font-size="18"><text x="26" y="44" fill="#8bbf8d">$ python bordro.py</text><text x="26" y="86" fill="#d9a14b">net hedef: 18.000,00</text><text x="26" y="126" fill="#d8d1c7">hesaplama...</text><text x="26" y="166" fill="#d8d1c7">sonuç: çalışıyor</text><text x="26" y="210" fill="#a2a8b0">ama bu ilk sürüm değil, sadece ilk cevap.</text></g></g>
<path d="M610 318c96-40 168-42 264-10" fill="none" stroke="url(#hot)" stroke-width="5" stroke-linecap="round"/>
<circle cx="610" cy="318" r="9" fill="#fff"/><circle cx="874" cy="308" r="9" fill="#fff"/>
</svg>
