<svg xmlns="http://www.w3.org/2000/svg" width="1200" height="720" viewBox="0 0 1200 720">
<rect width="1200" height="720" fill="#1d1a16"/><g><circle cx="784" cy="294" r="26" fill="none" stroke="#cf9c48" stroke-opacity="0.18" stroke-width="2"/><circle cx="298" cy="584" r="22" fill="none" stroke="#cf9c48" stroke-opacity="0.28" stroke-width="2"/><circle cx="497" cy="156" r="21" fill="none" stroke="#cf9c48" stroke-opacity="0.38" stroke-width="2"/><circle cx="652" cy="352" r="11" fill="none" stroke="#cf9c48" stroke-opacity="0.18" stroke-width="2"/><circle cx="1061" cy="131" r="18" fill="none" stroke="#cf9c48" stroke-opacity="0.28" stroke-width="2"/><circle cx="202" cy="462" r="20" fill="none" stroke="#cf9c48" stroke-opacity="0.38" stroke-width="2"/><circle cx="485" cy="327" r="39" fill="none" stroke="#cf9c48" stroke-opacity="0.18" stroke-width="2"/><circle cx="390" cy="113" r="25" fill="none" stroke="#cf9c48" stroke-opacity="0.28" stroke-width="2"/><circle cx="784" cy="491" r="31" fill="none" stroke="#cf9c48" stroke-opacity="0.38" stroke-width="2"/><path d="M40 404 C110 324,200 214,280 124" fill="none" stroke="#88b285" stroke-opacity=".38" stroke-width="2"/><path d="M210 179 C280 99,370 307,450 217" fill="none" stroke="#88b285" stroke-opacity=".38" stroke-width="2"/><path d="M380 144 C450 64,540 531,620 441" fill="none" stroke="#88b285" stroke-opacity=".38" stroke-width="2"/><path d="M550 121 C620 41,710 355,790 265" fill="none" stroke="#88b285" stroke-opacity=".38" stroke-width="2"/><path d="M720 161 C790 81,880 208,960 118" fill="none" stroke="#88b285" stroke-opacity=".38" stroke-width="2"/><path d="M890 411 C960 331,1050 170,1130 80" fill="none" stroke="#88b285" stroke-opacity=".38" stroke-width="2"/><path d="M1060 158 C1130 78,1220 170,1300 80" fill="none" stroke="#88b285" stroke-opacity=".38" stroke-width="2"/></g>
<rect x="54" y="52" width="260" height="36" fill="#cf9c48" opacity=".9"/><text x="72" y="76" font-family="monospace" font-size="17" font-weight="700" fill="#1d1a16">YZ ARACI</text>
<text x="58" y="590" font-family="Georgia,serif" font-size="68" font-weight="700" fill="#cf9c48">Coder-Asistan</text>
<text x="60" y="642" font-family="monospace" font-size="18" fill="#88b285">GEÇİCİ PROJE GÖRSELİ · GERÇEK MEDYA İLE DEĞİŞTİRİLECEK</text>
</svg>