<svg xmlns="http://www.w3.org/2000/svg" width="1200" height="720" viewBox="0 0 1200 720">
<rect width="1200" height="720" fill="#16202a"/><g><circle cx="476" cy="466" r="26" fill="none" stroke="#77a6c7" stroke-opacity="0.18" stroke-width="2"/><circle cx="909" cy="117" r="41" fill="none" stroke="#77a6c7" stroke-opacity="0.28" stroke-width="2"/><circle cx="183" cy="526" r="44" fill="none" stroke="#77a6c7" stroke-opacity="0.38" stroke-width="2"/><circle cx="352" cy="189" r="45" fill="none" stroke="#77a6c7" stroke-opacity="0.18" stroke-width="2"/><circle cx="634" cy="353" r="45" fill="none" stroke="#77a6c7" stroke-opacity="0.28" stroke-width="2"/><circle cx="279" cy="268" r="36" fill="none" stroke="#77a6c7" stroke-opacity="0.38" stroke-width="2"/><circle cx="494" cy="93" r="34" fill="none" stroke="#77a6c7" stroke-opacity="0.18" stroke-width="2"/><circle cx="781" cy="298" r="14" fill="none" stroke="#77a6c7" stroke-opacity="0.28" stroke-width="2"/><circle cx="476" cy="129" r="9" fill="none" stroke="#77a6c7" stroke-opacity="0.38" stroke-width="2"/><path d="M40 416 C110 336,200 206,280 116" fill="none" stroke="#d9b95f" stroke-opacity=".38" stroke-width="2"/><path d="M210 344 C280 264,370 213,450 123" fill="none" stroke="#d9b95f" stroke-opacity=".38" stroke-width="2"/><path d="M380 195 C450 115,540 264,620 174" fill="none" stroke="#d9b95f" stroke-opacity=".38" stroke-width="2"/><path d="M550 434 C620 354,710 264,790 174" fill="none" stroke="#d9b95f" stroke-opacity=".38" stroke-width="2"/><path d="M720 139 C790 59,880 257,960 167" fill="none" stroke="#d9b95f" stroke-opacity=".38" stroke-width="2"/><path d="M890 203 C960 123,1050 171,1130 81" fill="none" stroke="#d9b95f" stroke-opacity=".38" stroke-width="2"/><path d="M1060 207 C1130 127,1220 170,1300 80" fill="none" stroke="#d9b95f" stroke-opacity=".38" stroke-width="2"/></g>
<rect x="54" y="52" width="260" height="36" fill="#77a6c7" opacity=".9"/><text x="72" y="76" font-family="monospace" font-size="17" font-weight="700" fill="#16202a">ETKILEŞIM</text>
<text x="58" y="590" font-family="Georgia,serif" font-size="68" font-weight="700" fill="#77a6c7">Etkileşimli Mektup ve Ses Kurgusu</text>
<text x="60" y="642" font-family="monospace" font-size="18" fill="#d9b95f">GEÇİCİ PROJE GÖRSELİ · GERÇEK MEDYA İLE DEĞİŞTİRİLECEK</text>
</svg>