<svg xmlns="http://www.w3.org/2000/svg" width="1200" height="720" viewBox="0 0 1200 720">
<rect width="1200" height="720" fill="#201720"/><g><circle cx="599" cy="109" r="11" fill="none" stroke="#b56c93" stroke-opacity="0.18" stroke-width="2"/><circle cx="274" cy="298" r="27" fill="none" stroke="#b56c93" stroke-opacity="0.28" stroke-width="2"/><circle cx="234" cy="129" r="41" fill="none" stroke="#b56c93" stroke-opacity="0.38" stroke-width="2"/><circle cx="359" cy="89" r="16" fill="none" stroke="#b56c93" stroke-opacity="0.18" stroke-width="2"/><circle cx="634" cy="490" r="38" fill="none" stroke="#b56c93" stroke-opacity="0.28" stroke-width="2"/><circle cx="1059" cy="369" r="15" fill="none" stroke="#b56c93" stroke-opacity="0.38" stroke-width="2"/><circle cx="722" cy="464" r="28" fill="none" stroke="#b56c93" stroke-opacity="0.18" stroke-width="2"/><circle cx="290" cy="379" r="22" fill="none" stroke="#b56c93" stroke-opacity="0.28" stroke-width="2"/><circle cx="599" cy="79" r="11" fill="none" stroke="#b56c93" stroke-opacity="0.38" stroke-width="2"/><path d="M40 139 C110 59,200 569,280 479" fill="none" stroke="#d6a84a" stroke-opacity=".38" stroke-width="2"/><path d="M210 327 C280 247,370 564,450 474" fill="none" stroke="#d6a84a" stroke-opacity=".38" stroke-width="2"/><path d="M380 318 C450 238,540 204,620 114" fill="none" stroke="#d6a84a" stroke-opacity=".38" stroke-width="2"/><path d="M550 214 C620 134,710 472,790 382" fill="none" stroke="#d6a84a" stroke-opacity=".38" stroke-width="2"/><path d="M720 249 C790 169,880 196,960 106" fill="none" stroke="#d6a84a" stroke-opacity=".38" stroke-width="2"/><path d="M890 210 C960 130,1050 170,1130 80" fill="none" stroke="#d6a84a" stroke-opacity=".38" stroke-width="2"/><path d="M1060 146 C1130 66,1220 170,1300 80" fill="none" stroke="#d6a84a" stroke-opacity=".38" stroke-width="2"/></g>
<rect x="54" y="52" width="260" height="36" fill="#b56c93" opacity=".9"/><text x="72" y="76" font-family="monospace" font-size="17" font-weight="700" fill="#201720">KURGU</text>
<text x="58" y="590" font-family="Georgia,serif" font-size="68" font-weight="700" fill="#b56c93">10 Saniyelik Parçalardan Film</text>
<text x="60" y="642" font-family="monospace" font-size="18" fill="#d6a84a">GEÇİCİ PROJE GÖRSELİ · GERÇEK MEDYA İLE DEĞİŞTİRİLECEK</text>
</svg>