<svg xmlns="http://www.w3.org/2000/svg" width="1200" height="720" viewBox="0 0 1200 720">
<rect width="1200" height="720" fill="#e9dfce"/><g><circle cx="213" cy="123" r="15" fill="none" stroke="#7d3a33" stroke-opacity="0.18" stroke-width="2"/><circle cx="226" cy="246" r="19" fill="none" stroke="#7d3a33" stroke-opacity="0.28" stroke-width="2"/><circle cx="1008" cy="478" r="39" fill="none" stroke="#7d3a33" stroke-opacity="0.38" stroke-width="2"/><circle cx="976" cy="380" r="44" fill="none" stroke="#7d3a33" stroke-opacity="0.18" stroke-width="2"/><circle cx="322" cy="132" r="36" fill="none" stroke="#7d3a33" stroke-opacity="0.28" stroke-width="2"/><circle cx="630" cy="96" r="34" fill="none" stroke="#7d3a33" stroke-opacity="0.38" stroke-width="2"/><circle cx="408" cy="438" r="24" fill="none" stroke="#7d3a33" stroke-opacity="0.18" stroke-width="2"/><circle cx="1031" cy="554" r="40" fill="none" stroke="#7d3a33" stroke-opacity="0.28" stroke-width="2"/><circle cx="213" cy="505" r="35" fill="none" stroke="#7d3a33" stroke-opacity="0.38" stroke-width="2"/><path d="M40 363 C110 283,200 263,280 173" fill="none" stroke="#355f7b" stroke-opacity=".38" stroke-width="2"/><path d="M210 403 C280 323,370 358,450 268" fill="none" stroke="#355f7b" stroke-opacity=".38" stroke-width="2"/><path d="M380 282 C450 202,540 252,620 162" fill="none" stroke="#355f7b" stroke-opacity=".38" stroke-width="2"/><path d="M550 192 C620 112,710 458,790 368" fill="none" stroke="#355f7b" stroke-opacity=".38" stroke-width="2"/><path d="M720 145 C790 65,880 418,960 328" fill="none" stroke="#355f7b" stroke-opacity=".38" stroke-width="2"/><path d="M890 142 C960 62,1050 173,1130 83" fill="none" stroke="#355f7b" stroke-opacity=".38" stroke-width="2"/><path d="M1060 368 C1130 288,1220 170,1300 80" fill="none" stroke="#355f7b" stroke-opacity=".38" stroke-width="2"/></g>
<rect x="54" y="52" width="260" height="36" fill="#7d3a33" opacity=".9"/><text x="72" y="76" font-family="monospace" font-size="17" font-weight="700" fill="#e9dfce">VERI ANALIZI</text>
<text x="58" y="590" font-family="Georgia,serif" font-size="68" font-weight="700" fill="#7d3a33">Sipariş Analizinde R ve Python</text>
<text x="60" y="642" font-family="monospace" font-size="18" fill="#355f7b">GEÇİCİ PROJE GÖRSELİ · GERÇEK MEDYA İLE DEĞİŞTİRİLECEK</text>
</svg>