<svg xmlns="http://www.w3.org/2000/svg" width="1200" height="720" viewBox="0 0 1200 720">
<rect width="1200" height="720" fill="#1d1a16"/><g><circle cx="336" cy="406" r="40" fill="none" stroke="#cf9c48" stroke-opacity="0.18" stroke-width="2"/><circle cx="632" cy="168" r="16" fill="none" stroke="#cf9c48" stroke-opacity="0.28" stroke-width="2"/><circle cx="929" cy="283" r="10" fill="none" stroke="#cf9c48" stroke-opacity="0.38" stroke-width="2"/><circle cx="186" cy="94" r="37" fill="none" stroke="#cf9c48" stroke-opacity="0.18" stroke-width="2"/><circle cx="353" cy="508" r="34" fill="none" stroke="#cf9c48" stroke-opacity="0.28" stroke-width="2"/><circle cx="504" cy="518" r="43" fill="none" stroke="#cf9c48" stroke-opacity="0.38" stroke-width="2"/><circle cx="393" cy="119" r="45" fill="none" stroke="#cf9c48" stroke-opacity="0.18" stroke-width="2"/><circle cx="379" cy="456" r="36" fill="none" stroke="#cf9c48" stroke-opacity="0.28" stroke-width="2"/><circle cx="336" cy="362" r="34" fill="none" stroke="#cf9c48" stroke-opacity="0.38" stroke-width="2"/><path d="M40 186 C110 106,200 206,280 116" fill="none" stroke="#88b285" stroke-opacity=".38" stroke-width="2"/><path d="M210 186 C280 106,370 379,450 289" fill="none" stroke="#88b285" stroke-opacity=".38" stroke-width="2"/><path d="M380 392 C450 312,540 403,620 313" fill="none" stroke="#88b285" stroke-opacity=".38" stroke-width="2"/><path d="M550 343 C620 263,710 303,790 213" fill="none" stroke="#88b285" stroke-opacity=".38" stroke-width="2"/><path d="M720 402 C790 322,880 337,960 247" fill="none" stroke="#88b285" stroke-opacity=".38" stroke-width="2"/><path d="M890 158 C960 78,1050 172,1130 82" fill="none" stroke="#88b285" stroke-opacity=".38" stroke-width="2"/><path d="M1060 287 C1130 207,1220 170,1300 80" fill="none" stroke="#88b285" stroke-opacity=".38" stroke-width="2"/></g>
<rect x="54" y="52" width="260" height="36" fill="#cf9c48" opacity=".9"/><text x="72" y="76" font-family="monospace" font-size="17" font-weight="700" fill="#1d1a16">ARAÇ</text>
<text x="58" y="590" font-family="Georgia,serif" font-size="68" font-weight="700" fill="#cf9c48">ai-context</text>
<text x="60" y="642" font-family="monospace" font-size="18" fill="#88b285">PYTHON · CLI · GIT</text>
</svg>