<svg xmlns="http://www.w3.org/2000/svg" viewBox="0 0 1500 1000" role="img" aria-labelledby="t d">
<title id="t">InvokeAI, Flow ve Meta AI üretim zinciri</title><desc id="d">Teknik katmanlardan yapay zekâ görseline ve hareketli karelere ilerleyen üç aşamalı kompozisyon.</desc>
<defs>
  <linearGradient id="bg" x1="0" y1="0" x2="1" y2="1"><stop stop-color="#0d1016"/><stop offset=".55" stop-color="#18121d"/><stop offset="1" stop-color="#281729"/></linearGradient>
  <radialGradient id="glow"><stop stop-color="#f2c37a" stop-opacity=".78"/><stop offset="1" stop-color="#f2c37a" stop-opacity="0"/></radialGradient>
  <filter id="shadow"><feDropShadow dx="0" dy="24" stdDeviation="26" flood-color="#000" flood-opacity=".55"/></filter>
</defs>
<rect width="1500" height="1000" rx="42" fill="url(#bg)"/>
<circle cx="1010" cy="420" r="430" fill="url(#glow)" opacity=".22"/>
<g opacity=".18" stroke="#9f8aad"><path d="M0 140h1500M0 280h1500M0 420h1500M0 560h1500M0 700h1500M0 840h1500"/><path d="M150 0v1000M300 0v1000M450 0v1000M600 0v1000M750 0v1000M900 0v1000M1050 0v1000M1200 0v1000M1350 0v1000"/></g>
<g filter="url(#shadow)">
  <g transform="translate(95 220) rotate(-5 260 285)">
    <rect width="520" height="570" rx="24" fill="#171b23" stroke="#404756"/>
    <text x="34" y="56" fill="#b9c0cb" font-family="monospace" font-size="20">01 · PASSES</text>
    <rect x="34" y="92" width="210" height="190" rx="16" fill="#d9d9d9"/>
    <path d="M57 242 119 130l46 74 54-84" fill="none" stroke="#222" stroke-width="10"/><circle cx="168" cy="174" r="48" fill="none" stroke="#666" stroke-width="8"/>
    <rect x="274" y="92" width="210" height="190" rx="16" fill="#242a31"/>
    <path d="M294 248 354 130l44 72 58-82" fill="none" stroke="#ccd3da" stroke-width="4"/><circle cx="408" cy="174" r="47" fill="none" stroke="#aab1ba" stroke-width="4"/>
    <rect x="34" y="312" width="450" height="190" rx="16" fill="#0d1117"/>
    <path d="M55 470c100-130 170-130 250-30s120 25 160-65" fill="none" stroke="#79a9ff" stroke-width="7"/><path d="M55 455c100-80 160-70 235 5s120 40 175-48" fill="none" stroke="#c271ff" stroke-width="5"/>
    <text x="34" y="540" fill="#8a94a3" font-family="monospace" font-size="17">DEPTH · LINE · NORMAL</text>
  </g>
  <g transform="translate(505 105) rotate(2 320 365)">
    <rect width="640" height="730" rx="28" fill="#131016" stroke="#6f536e"/>
    <text x="38" y="58" fill="#dfc9df" font-family="monospace" font-size="20">02 · INVOKEAI</text>
    <rect x="38" y="92" width="564" height="544" rx="20" fill="#090b0f"/>
    <ellipse cx="320" cy="390" rx="155" ry="210" fill="#11151d" stroke="#eee0ce" stroke-width="4"/>
    <path d="M312 180c-40 70-18 110-74 170s-48 135-82 197M330 182c35 84 14 118 70 175s41 130 79 190" fill="none" stroke="#f4e8db" stroke-width="7" stroke-linecap="round"/>
    <path d="M220 300c70 22 125 20 200-2M208 408c84-25 149-23 224 4" fill="none" stroke="#d59f6f" stroke-width="4" opacity=".85"/>
    <circle cx="320" cy="390" r="250" fill="url(#glow)" opacity=".28"/>
    <text x="38" y="688" fill="#b59ab4" font-family="monospace" font-size="17">REFERENCE · CONTROL · FLUX</text>
  </g>
  <g transform="translate(1060 250) rotate(5 175 255)">
    <rect width="350" height="510" rx="24" fill="#17141b" stroke="#7f627d"/>
    <text x="28" y="54" fill="#d7c2d5" font-family="monospace" font-size="18">03 · MOTION</text>
    <g transform="translate(28 88)"><rect width="294" height="112" rx="12" fill="#0b0d12"/><circle cx="106" cy="57" r="34" fill="#262c37"/><path d="M141 57h92" stroke="#d5a057" stroke-width="5" stroke-linecap="round"/></g>
    <g transform="translate(28 216)"><rect width="294" height="112" rx="12" fill="#0b0d12"/><circle cx="154" cy="57" r="38" fill="#303746"/><path d="M40 57h78M196 57h58" stroke="#d5a057" stroke-width="5" stroke-linecap="round"/></g>
    <g transform="translate(28 344)"><rect width="294" height="112" rx="12" fill="#0b0d12"/><circle cx="213" cy="57" r="32" fill="#3a4252"/><path d="M40 57h135" stroke="#d5a057" stroke-width="5" stroke-linecap="round"/></g>
    <text x="28" y="486" fill="#a993a8" font-family="monospace" font-size="16">FLOW · META AI · EDIT</text>
  </g>
</g>
<path d="M485 500h68M1108 500h72" stroke="#e7b264" stroke-width="5" stroke-linecap="round"/><path d="m545 489 14 11-14 11M1172 489l14 11-14 11" fill="none" stroke="#e7b264" stroke-width="5"/>
</svg>
