<svg xmlns="http://www.w3.org/2000/svg" width="1200" height="720" viewBox="0 0 1200 720">
<rect width="1200" height="720" fill="#151b18"/><g><circle cx="883" cy="233" r="27" fill="none" stroke="#72ad86" stroke-opacity="0.18" stroke-width="2"/><circle cx="960" cy="250" r="12" fill="none" stroke="#72ad86" stroke-opacity="0.28" stroke-width="2"/><circle cx="970" cy="425" r="28" fill="none" stroke="#72ad86" stroke-opacity="0.38" stroke-width="2"/><circle cx="711" cy="326" r="32" fill="none" stroke="#72ad86" stroke-opacity="0.18" stroke-width="2"/><circle cx="288" cy="515" r="42" fill="none" stroke="#72ad86" stroke-opacity="0.28" stroke-width="2"/><circle cx="496" cy="151" r="35" fill="none" stroke="#72ad86" stroke-opacity="0.38" stroke-width="2"/><circle cx="262" cy="160" r="14" fill="none" stroke="#72ad86" stroke-opacity="0.18" stroke-width="2"/><circle cx="102" cy="247" r="38" fill="none" stroke="#72ad86" stroke-opacity="0.28" stroke-width="2"/><circle cx="883" cy="478" r="44" fill="none" stroke="#72ad86" stroke-opacity="0.38" stroke-width="2"/><path d="M40 433 C110 353,200 193,280 103" fill="none" stroke="#d3a54b" stroke-opacity=".38" stroke-width="2"/><path d="M210 160 C280 80,370 580,450 490" fill="none" stroke="#d3a54b" stroke-opacity=".38" stroke-width="2"/><path d="M380 122 C450 42,540 578,620 488" fill="none" stroke="#d3a54b" stroke-opacity=".38" stroke-width="2"/><path d="M550 408 C620 328,710 392,790 302" fill="none" stroke="#d3a54b" stroke-opacity=".38" stroke-width="2"/><path d="M720 138 C790 58,880 302,960 212" fill="none" stroke="#d3a54b" stroke-opacity=".38" stroke-width="2"/><path d="M890 265 C960 185,1050 172,1130 82" fill="none" stroke="#d3a54b" stroke-opacity=".38" stroke-width="2"/><path d="M1060 252 C1130 172,1220 170,1300 80" fill="none" stroke="#d3a54b" stroke-opacity=".38" stroke-width="2"/></g>
<rect x="54" y="52" width="260" height="36" fill="#72ad86" opacity=".9"/><text x="72" y="76" font-family="monospace" font-size="17" font-weight="700" fill="#151b18">ARAYÜZ FIKRI</text>
<text x="58" y="590" font-family="Georgia,serif" font-size="68" font-weight="700" fill="#72ad86">Çoklu YZ Paneli</text>
<text x="60" y="642" font-family="monospace" font-size="18" fill="#d3a54b">API · PHP · JAVASCRIPT</text>
</svg>